<?xml version="1.0" encoding="utf-8"?>
<!-- Generator: Adobe Illustrator 27.4.0, SVG Export Plug-In . SVG Version: 6.00 Build 0)  -->
<svg version="1.1" id="Layer_1" xmlns="http://www.w3.org/2000/svg" xmlns:xlink="http://www.w3.org/1999/xlink" x="0px" y="0px"
	 viewBox="0 0 200 200" style="enable-background:new 0 0 200 200;" xml:space="preserve">
<g>
	<g transform="translate(0.000000,200.000000) scale(0.026882,-0.026882)">
		<path d="M0,6398.3V5356.7h1041.6h1041.6v1041.6v1041.6H1041.6H0V6398.3z M1785.6,6398.3v-744h-744h-744v744v744h744h744V6398.3z"
			/>
		<path d="M595.2,6398.3v-446.4h446.4H1488v446.4v446.4h-446.4H595.2V6398.3z"/>
		<path d="M2976,7291.1v-148.8h-148.8h-148.8v-148.8v-148.8h-148.8h-148.8v-148.8v-148.8h148.8h148.8v-297.6v-297.6h148.8H2976
			v-297.6v-297.6h148.8h148.8v-148.8v-148.8h148.8h148.8v-148.8v-148.8h-148.8h-148.8v-148.8V4464h-148.8H2976v148.8v148.8h-148.8
			h-148.8v446.4v446.4h-148.8h-148.8v-297.6v-297.6h-595.2h-595.2V4464v-595.2h148.8H1488v-297.6v-297.6h148.8h148.8v-148.8V2976
			h-446.4H892.8v-148.8v-148.8H744H595.2v148.8V2976H446.4H297.6v148.8v148.8H148.8H0v-148.8V2976h148.8h148.8v-148.8v-148.8H148.8
			H0v-148.8v-148.8h148.8h148.8v148.8v148.8h148.8h148.8v-148.8v-148.8H744h148.8v148.8v148.8h446.4h446.4v-148.8v-148.8h297.6
			h297.6v-595.2v-595.2h297.6H2976v-148.8V892.8h297.6h297.6v297.6V1488h297.6h297.6v-148.8v-148.8h148.8H4464V595.2V0h297.6h297.6
			v297.6v297.6h-148.8h-148.8v297.6v297.6h148.8h148.8v-148.8V892.8h148.8h148.8v148.8v148.8h148.8h148.8v-148.8V892.8h148.8h148.8
			V595.2V297.6h-148.8h-148.8v148.8v148.8h-148.8h-148.8V446.4V297.6h148.8h148.8V148.8V0h148.8h148.8v148.8v148.8h297.6h297.6
			v148.8v148.8h-148.8h-148.8V744v148.8h297.6h297.6v148.8v148.8h297.6h297.6v595.2v595.2h-297.6h-297.6v-595.2v-595.2h-148.8
			h-148.8v744v744h-148.8h-148.8v148.8V2976h-148.8h-148.8v148.8v148.8h-148.8h-148.8v297.6v297.6h148.8h148.8v148.8v148.8h-148.8
			h-148.8v-148.8v-148.8h-297.6h-297.6v148.8v148.8h-148.8h-148.8v-148.8v-148.8H4464h-297.6v148.8v148.8h148.8H4464V4464v297.6
			h-297.6h-297.6v148.8v148.8h148.8h148.8v148.8v148.8h148.8H4464v148.8v148.8h148.8h148.8v-148.8v-148.8h148.8h148.8v297.6v297.6
			h-148.8h-148.8v148.8v148.8h148.8h148.8v297.6v297.6h-148.8h-148.8v297.6v297.6H4464h-297.6v-297.6v-297.6h148.8H4464v-446.4
			v-446.4h-148.8h-148.8v-297.6v-297.6h-148.8h-148.8v595.2v595.2H3720h-148.8v148.8v148.8h-148.8h-148.8v-148.8v-148.8h148.8h148.8
			v-297.6v-297.6h-297.6H2976v297.6v297.6h-148.8h-148.8v148.8v148.8h148.8H2976v148.8v148.8h148.8h148.8v148.8v148.8h-148.8H2976
			V7291.1z M3571.2,5505.5v-148.8H3720h148.8v-148.8v-148.8H3720h-148.8v148.8v148.8h-148.8h-148.8v148.8v148.8h148.8h148.8V5505.5z
			 M2083.2,4612.8V4464H2232h148.8v148.8v148.8h148.8h148.8v-148.8V4464h148.8H2976v-148.8v-148.8h-446.4h-446.4v-148.8v-148.8
			h-297.6H1488v148.8v148.8h297.6h297.6v148.8V4464h-148.8h-148.8v148.8v148.8h148.8h148.8V4612.8z M4166.4,4315.2v-148.8h-148.8
			h-148.8v148.8V4464h148.8h148.8V4315.2z M3571.2,4017.6v-148.8H3720h148.8v-595.2v-595.2h148.8h148.8V2976v297.6h148.8H4464v148.8
			v148.8h446.4h446.4v-148.8v-148.8h-148.8h-148.8V2976v-297.6h-148.8h-148.8v148.8V2976h-148.8H4464v-297.6v-297.6h148.8h148.8
			V2232v-148.8h-148.8H4464v-148.8v-148.8h148.8h148.8V1488v-297.6h-148.8H4464V1488v297.6h-148.8h-148.8v148.8v148.8h148.8H4464
			V2232v148.8h-297.6h-297.6v148.8v148.8H3720h-148.8v-148.8v-148.8h-148.8h-148.8V2232v-148.8H2976h-297.6v297.6v297.6h148.8H2976
			v148.8V2976h-297.6h-297.6v148.8v148.8h-297.6h-297.6v148.8v148.8H2232h446.4V3720v148.8h148.8H2976V3720v-148.8h-148.8h-148.8
			v-148.8v-148.8h148.8H2976v-148.8V2976h148.8h148.8v148.8v148.8h148.8h148.8v297.6v297.6h-148.8h-148.8v148.8v148.8h148.8h148.8
			V4017.6z M2083.2,2827.2v-148.8h-148.8h-148.8v148.8V2976h148.8h148.8V2827.2z M5951.9,2827.2v-148.8h-297.6h-297.6v148.8V2976
			h297.6h297.6V2827.2z M5951.9,1934.4V1488h-446.4h-446.4v446.4v446.4h446.4h446.4V1934.4z M3571.2,1636.8V1488h-148.8h-148.8
			v148.8v148.8h148.8h148.8V1636.8z"/>
		<path d="M3273.6,2827.2v-148.8h148.8h148.8v148.8V2976h-148.8h-148.8V2827.2z"/>
		<path d="M5356.7,1934.4v-148.8h148.8h148.8v148.8v148.8h-148.8h-148.8V1934.4z"/>
		<path d="M5356.7,6398.3V5356.7h1041.6h1041.6v1041.6v1041.6H6398.3H5356.7V6398.3z M7142.3,6398.3v-744h-744h-744v744v744h744h744
			V6398.3z"/>
		<path d="M5951.9,6398.3v-446.4h446.4h446.4v446.4v446.4h-446.4h-446.4V6398.3z"/>
		<path d="M0,4315.2v-744h446.4h446.4v-148.8v-148.8h148.8h148.8v148.8v148.8h-148.8H892.8v297.6v297.6H744H595.2v-148.8v-148.8
			H446.4H297.6v446.4v446.4h297.6h297.6v148.8v148.8H446.4H0V4315.2z"/>
		<path d="M5059.1,4761.6V4464h297.6h297.6v297.6v297.6h-297.6h-297.6V4761.6z"/>
		<path d="M6547.1,4910.3v-148.8h148.8h148.8v148.8v148.8h-148.8h-148.8V4910.3z"/>
		<path d="M7142.3,4612.8V4464h-297.6h-297.6v-148.8v-148.8h148.8h148.8v-297.6v-297.6h148.8h148.8v-148.8v-148.8h-297.6h-297.6
			v297.6v297.6h-148.8h-148.8v-297.6v-297.6h148.8h148.8v-148.8V2976h148.8h148.8v-148.8v-148.8h148.8h148.8v148.8V2976h148.8h148.8
			v446.4v446.4h-148.8h-148.8v148.8v148.8h148.8h148.8V4464v297.6h-148.8h-148.8V4612.8z"/>
		<path d="M0,1041.6V0h1041.6h1041.6v1041.6v1041.6H1041.6H0V1041.6z M1785.6,1041.6v-744h-744h-744v744v744h744h744V1041.6z"/>
		<path d="M595.2,1041.6V595.2h446.4H1488v446.4V1488h-446.4H595.2V1041.6z"/>
		<path d="M2380.8,446.4V0h148.8h148.8v446.4v446.4h-148.8h-148.8V446.4z"/>
		<path d="M3868.8,744V595.2h148.8h148.8V744v148.8h-148.8h-148.8V744z"/>
		<path d="M7142.3,744V595.2h-148.8h-148.8V297.6V0h297.6h297.6v148.8v148.8h-148.8h-148.8v148.8v148.8h148.8h148.8V744v148.8
			h-148.8h-148.8V744z"/>
		<path d="M2976,446.4V297.6h297.6h297.6V148.8V0H3720h148.8v148.8v148.8H3720h-148.8v148.8v148.8h-297.6H2976V446.4z"/>
	</g>
</g>
</svg>
