<?xml version="1.0" encoding="utf-8"?>
<!-- Generator: Adobe Illustrator 27.4.0, SVG Export Plug-In . SVG Version: 6.00 Build 0)  -->
<svg version="1.1" id="Layer_1" xmlns="http://www.w3.org/2000/svg" xmlns:xlink="http://www.w3.org/1999/xlink" x="0px" y="0px"
	 viewBox="0 0 200 200" style="enable-background:new 0 0 200 200;" xml:space="preserve">
<style type="text/css">
	.st0{fill:#0275FF;}
</style>
<g>
	<g transform="translate(0.000000,200.000000) scale(0.026882,-0.026882)">
		<path class="st0" d="M0,6398.3v-967.2c0-41.1,33.3-74.4,74.4-74.4h967.2h967.2c41.1,0,74.4,33.3,74.4,74.4v967.2v967.2
			c0,41.1-33.3,74.4-74.4,74.4h-967.2H74.4c-41.1,0-74.4-33.3-74.4-74.4V6398.3z M1785.6,6398.3v-669.6c0-41.1-33.3-74.4-74.4-74.4
			h-669.6H372c-41.1,0-74.4,33.3-74.4,74.4v669.6v669.6c0,41.1,33.3,74.4,74.4,74.4h669.6h669.6c41.1,0,74.4-33.3,74.4-74.4V6398.3z
			"/>
		<path class="st0" d="M595.2,6398.3v-372c0-41.1,33.3-74.4,74.4-74.4h372h372c41.1,0,74.4,33.3,74.4,74.4v372v372
			c0,41.1-33.3,74.4-74.4,74.4h-372h-372c-41.1,0-74.4-33.3-74.4-74.4V6398.3z"/>
		<path class="st0" d="M2380.8,6844.7v-520.8c0-41.1,33.3-74.4,74.4-74.4h74.4h74.4c41.1,0,74.4-33.3,74.4-74.4v-74.4v-74.4
			c0-41.1-33.3-74.4-74.4-74.4h-74.4h-74.4c-41.1,0-74.4-33.3-74.4-74.4v-223.2v-223.2c0-41.1,33.3-74.4,74.4-74.4h74.4h74.4
			c41.1,0,74.4,33.3,74.4,74.4v74.4v74.4c0,41.1,33.3,74.4,74.4,74.4h74.4h74.4c41.1,0,74.4-33.3,74.4-74.4v-372v-372
			c0-41.1,33.3-74.4,74.4-74.4h74.4h74.4c41.1,0,74.4,33.3,74.4,74.4v74.4v74.4c0,41.1,33.3,74.4,74.4,74.4h74.4h74.4
			c41.1,0,74.4-33.3,74.4-74.4v-74.4v-74.4c0-41.1,33.3-74.4,74.4-74.4h74.4h74.4c41.1,0,74.4,33.3,74.4,74.4v74.4v74.4
			c0,41.1-33.3,74.4-74.4,74.4H3720h-74.4c-41.1,0-74.4,33.3-74.4,74.4v74.4v74.4c0,41.1,33.3,74.4,74.4,74.4h74.4h74.4
			c41.1,0,74.4,33.3,74.4,74.4v74.4v74.4c0,41.1,33.3,74.4,74.4,74.4h74.4h74.4c41.1,0,74.4-33.3,74.4-74.4v-74.4v-74.4
			c0-41.1,33.3-74.4,74.4-74.4h74.4h74.4c41.1,0,74.4,33.3,74.4,74.4v223.2v223.2c0,41.1,33.3,74.4,74.4,74.4h74.4h74.4
			c41.1,0,74.4-33.3,74.4-74.4v-520.8v-520.8c0-41.1-33.3-74.4-74.4-74.4H4464h-223.2c-41.1,0-74.4-33.3-74.4-74.4v-74.4v-74.3
			c0-41.1-33.3-74.4-74.4-74.4h-74.4h-74.4c-41.1,0-74.4-33.3-74.4-74.4v-74.4v-74.4c0-41.1-33.3-74.4-74.4-74.4H3720h-74.4
			c-41.1,0-74.4-33.3-74.4-74.4v-74.4v-74.4c0-41.1-33.3-74.4-74.4-74.4h-74.4H3348c-41.1,0-74.4-33.3-74.4-74.4V3720v-74.4
			c0-41.1-33.3-74.4-74.4-74.4H2976h-223.2c-41.1,0-74.4,33.3-74.4,74.4v74.4v74.4c0,41.1,33.3,74.4,74.4,74.4h74.4h74.4
			c41.1,0,74.4,33.3,74.4,74.4v74.4v74.4c0,41.1,33.3,74.4,74.4,74.4h74.4h74.4c41.1,0,74.4,33.3,74.4,74.4v74.4v74.4
			c0,41.1-33.3,74.4-74.4,74.4H2976h-223.2c-41.1,0-74.4,33.3-74.4,74.4v74.4v74.4c0,41.1-33.3,74.4-74.4,74.4h-223.2h-223.2
			c-41.1,0-74.4,33.3-74.4,74.4v74.4v74.4c0,41.1-33.3,74.4-74.4,74.4h-372h-372c-41.1,0-74.4-33.3-74.4-74.4v-74.4V4836
			c0-41.1-33.3-74.4-74.4-74.4H892.8H669.6c-41.1,0-74.4,33.3-74.4,74.4v74.4v74.4c0,41.1-33.3,74.4-74.4,74.4H297.6H74.4
			c-41.1,0-74.4-33.3-74.4-74.4v-223.2v-223.2c0-41.1,33.3-74.4,74.4-74.4h223.2h223.2c41.1,0,74.4-33.3,74.4-74.4v-74.4v-74.4
			c0-41.1-33.3-74.4-74.4-74.4h-74.4H372c-41.1,0-74.4-33.3-74.4-74.4v-74.4v-74.4c0-41.1-33.3-74.4-74.4-74.4h-74.4H74.4
			c-41.1,0-74.4-33.3-74.4-74.4v-223.2V3348c0-41.1,33.3-74.4,74.4-74.4h372h372c41.1,0,74.4-33.3,74.4-74.4v-74.4v-74.4
			c0-41.1-33.3-74.4-74.4-74.4H744h-74.4c-41.1,0-74.4-33.3-74.4-74.4v-74.4v-74.4c0-41.1-33.3-74.4-74.4-74.4H297.6H74.4
			c-41.1,0-74.4-33.3-74.4-74.4v-74.4v-74.4c0-41.1,33.3-74.4,74.4-74.4H744h669.6c41.1,0,74.4,33.3,74.4,74.4v223.2v223.2
			c0,41.1,33.3,74.4,74.4,74.4h223.2h223.2c41.1,0,74.4-33.3,74.4-74.4v-74.4v-74.4c0-41.1-33.3-74.4-74.4-74.4h-74.4H1860
			c-41.1,0-74.4-33.3-74.4-74.4v-74.4v-74.4c0-41.1,33.3-74.4,74.4-74.4h74.4h74.4c41.1,0,74.4,33.3,74.4,74.4v74.4v74.4
			c0,41.1,33.3,74.4,74.4,74.4h74.4h74.4c41.1,0,74.4,33.3,74.4,74.4v74.4v74.4c0,41.1,33.3,74.4,74.4,74.4h74.4h74.4
			c41.1,0,74.4-33.3,74.4-74.4v-223.2v-223.2c0-41.1-33.3-74.4-74.4-74.4h-74.4h-74.4c-41.1,0-74.4-33.3-74.4-74.4V2232v-74.4
			c0-41.1,33.3-74.4,74.4-74.4h74.4h74.4c41.1,0,74.4,33.3,74.4,74.4v74.4v74.4c0,41.1,33.3,74.4,74.4,74.4h74.4h74.4
			c41.1,0,74.4-33.3,74.4-74.4v-223.2V1860c0-41.1-33.3-74.4-74.4-74.4h-223.2h-223.2c-41.1,0-74.4-33.3-74.4-74.4V1488v-223.2
			c0-41.1,33.3-74.4,74.4-74.4h223.2h223.2c41.1,0,74.4,33.3,74.4,74.4V1488v223.2c0,41.1,33.3,74.4,74.4,74.4h74.4h74.4
			c41.1,0,74.4,33.3,74.4,74.4v372v372c0,41.1,33.3,74.4,74.4,74.4h74.4h74.4c41.1,0,74.4-33.3,74.4-74.4v-74.4v-74.4
			c0-41.1,33.3-74.4,74.4-74.4h74.4h74.4c41.1,0,74.4,33.3,74.4,74.4v74.4v74.4c0,41.1-33.3,74.4-74.4,74.4H3720h-74.4
			c-41.1,0-74.4,33.3-74.4,74.4v74.4v74.4c0,41.1,33.3,74.4,74.4,74.4h223.2H4092c41.1,0,74.4-33.3,74.4-74.4v-74.4v-74.4
			c0-41.1,33.3-74.4,74.4-74.4h74.4h74.4c41.1,0,74.4-33.3,74.4-74.4v-74.4v-74.4c0-41.1-33.3-74.4-74.4-74.4h-74.4h-74.4
			c-41.1,0-74.4-33.3-74.4-74.4V2232v-74.4c0-41.1-33.3-74.4-74.4-74.4h-74.4h-74.4c-41.1,0-74.4-33.3-74.4-74.4v-74.4V1860
			c0-41.1-33.3-74.4-74.4-74.4H3720h-74.4c-41.1,0-74.4-33.3-74.4-74.4v-74.4v-74.4c0-41.1-33.3-74.4-74.4-74.4h-74.4H3348
			c-41.1,0-74.4-33.3-74.4-74.4v-74.4v-74.4c0-41.1,33.3-74.4,74.4-74.4h74.4h74.4c41.1,0,74.4-33.3,74.4-74.4v-74.4v-74.4
			c0-41.1-33.3-74.4-74.4-74.4h-74.4H3348c-41.1,0-74.4-33.3-74.4-74.4V595.2V372c0-41.1,33.3-74.4,74.4-74.4h74.4h74.4
			c41.1,0,74.4-33.3,74.4-74.4v-74.4V74.4c0-41.1,33.3-74.4,74.4-74.4h223.2H4092c41.1,0,74.4,33.3,74.4,74.4v223.2v223.2
			c0,41.1,33.3,74.4,74.4,74.4h74.4h74.4c41.1,0,74.4-33.3,74.4-74.4V297.6V74.4c0-41.1,33.3-74.4,74.4-74.4h74.4h74.4
			c41.1,0,74.4,33.3,74.4,74.4v223.2v223.2c0,41.1-33.3,74.4-74.4,74.4h-74.4h-74.4c-41.1,0-74.4,33.3-74.4,74.4v669.6v669.6
			c0,41.1,33.3,74.4,74.4,74.4h74.4h74.4c41.1,0,74.4-33.3,74.4-74.4v-372v-372c0-41.1,33.3-74.4,74.4-74.4h223.2h223.2
			c41.1,0,74.4-33.3,74.4-74.4v-74.4v-74.4c0-41.1-33.3-74.4-74.4-74.4H5208h-74.4c-41.1,0-74.4-33.3-74.4-74.4V744v-74.4
			c0-41.1,33.3-74.4,74.4-74.4h74.4h74.4c41.1,0,74.4-33.3,74.4-74.4v-74.4V372c0-41.1,33.3-74.4,74.4-74.4H5952h520.8
			c41.1,0,74.4-33.3,74.4-74.4v-74.4V74.4c0-41.1,33.3-74.4,74.4-74.4h372h372c41.1,0,74.4,33.3,74.4,74.4v74.4v74.4
			c0,41.1-33.3,74.4-74.4,74.4h-74.4h-74.4c-41.1,0-74.4,33.3-74.4,74.4v223.2v223.2c0,41.1,33.3,74.4,74.4,74.4h74.4h74.4
			c41.1,0,74.4,33.3,74.4,74.4v372v372c0,41.1-33.3,74.4-74.4,74.4h-520.8H6324c-41.1,0-74.4,33.3-74.4,74.4v223.2v223.2
			c0,41.1,33.3,74.4,74.4,74.4h223.2h223.2c41.1,0,74.4,33.3,74.4,74.4v74.4v74.4c0,41.1,33.3,74.4,74.4,74.4h74.4h74.4
			c41.1,0,74.4,33.3,74.4,74.4v74.4v74.4c0,41.1-33.3,74.4-74.4,74.4h-74.4h-74.4c-41.1,0-74.4,33.3-74.4,74.4v74.4v74.4
			c0,41.1,33.3,74.4,74.4,74.4h74.4h74.4c41.1,0,74.4,33.3,74.4,74.4v74.4v74.4c0,41.1,33.3,74.4,74.4,74.4h74.4h74.4
			c41.1,0,74.4,33.3,74.4,74.4v74.4v74.4c0,41.1-33.3,74.4-74.4,74.4h-74.4h-74.4c-41.1,0-74.4,33.3-74.4,74.4v74.4v74.4
			c0,41.1-33.3,74.4-74.4,74.4h-74.4h-74.4c-41.1,0-74.4,33.3-74.4,74.4v74.4v74.4c0,41.1,33.3,74.4,74.4,74.4h74.4h74.4
			c41.1,0,74.4,33.3,74.4,74.4v74.4v74.4c0,41.1,33.3,74.4,74.4,74.4h74.4h74.4c41.1,0,74.4,33.3,74.4,74.4v74.4v74.4
			c0,41.1-33.3,74.4-74.4,74.4h-520.8H6324c-41.1,0-74.4-33.3-74.4-74.4v-74.4V4836c0-41.1-33.3-74.4-74.4-74.4h-74.4h-74.4
			c-41.1,0-74.4,33.3-74.4,74.4v74.4v74.4c0,41.1-33.3,74.4-74.4,74.4h-74.4h-74.4c-41.1,0-74.4-33.3-74.4-74.4v-74.4V4836
			c0-41.1,33.3-74.4,74.4-74.4h74.4h74.4c41.1,0,74.4-33.3,74.4-74.4V4464v-223.2c0-41.1,33.3-74.4,74.4-74.4h223.2h223.2
			c41.1,0,74.4-33.3,74.4-74.4v-74.4v-74.4c0-41.1-33.3-74.4-74.4-74.4h-74.4H6324c-41.1,0-74.4-33.3-74.4-74.4V3720v-74.4
			c0-41.1-33.3-74.4-74.4-74.4h-74.4h-74.4c-41.1,0-74.4,33.3-74.4,74.4v74.4v74.4c0,41.1-33.3,74.4-74.4,74.4h-372h-372
			c-41.1,0-74.4-33.3-74.4-74.4v-223.2V3348c0-41.1,33.3-74.4,74.4-74.4h74.4h74.4c41.1,0,74.4,33.3,74.4,74.4v74.4v74.4
			c0,41.1,33.3,74.4,74.4,74.4h223.2h223.2c41.1,0,74.4-33.3,74.4-74.4v-74.4V3348c0-41.1-33.3-74.4-74.4-74.4h-74.4h-74.4
			c-41.1,0-74.4-33.3-74.4-74.4V2976v-223.2c0-41.1-33.3-74.4-74.4-74.4h-74.4h-74.4c-41.1,0-74.4,33.3-74.4,74.4v74.4v74.4
			c0,41.1-33.3,74.4-74.4,74.4h-223.2H4836c-41.1,0-74.4,33.3-74.4,74.4v372v372c0,41.1-33.3,74.4-74.4,74.4H4464h-223.2
			c-41.1,0-74.4-33.3-74.4-74.4V3720v-74.4c0-41.1-33.3-74.4-74.4-74.4h-223.2h-223.2c-41.1,0-74.4,33.3-74.4,74.4v74.4v74.4
			c0,41.1,33.3,74.4,74.4,74.4h74.4h74.4c41.1,0,74.4,33.3,74.4,74.4v74.4v74.4c0,41.1,33.3,74.4,74.4,74.4h74.4h74.4
			c41.1,0,74.4,33.3,74.4,74.4v74.4v74.4c0,41.1,33.3,74.4,74.4,74.4h74.4h74.4c41.1,0,74.4-33.3,74.4-74.4v-74.4v-74.4
			c0-41.1,33.3-74.4,74.4-74.4h74.4h74.4c41.1,0,74.4,33.3,74.4,74.4V4464v223.2c0,41.1,33.3,74.4,74.4,74.4h74.4h74.4
			c41.1,0,74.4,33.3,74.4,74.4v669.6v669.6c0,41.1-33.3,74.4-74.4,74.4h-74.4H4836c-41.1,0-74.4,33.3-74.4,74.4v74.4v74.4
			c0,41.1,33.3,74.4,74.4,74.4h74.4h74.4c41.1,0,74.4,33.3,74.4,74.4v74.4v74.4c0,41.1-33.3,74.4-74.4,74.4h-372h-372
			c-41.1,0-74.4,33.3-74.4,74.4v74.4v74.4c0,41.1,33.3,74.4,74.4,74.4h74.4h74.4c41.1,0,74.4,33.3,74.4,74.4v74.4v74.4
			c0,41.1-33.3,74.4-74.4,74.4h-74.4h-74.4c-41.1,0-74.4-33.3-74.4-74.4v-74.4v-74.4c0-41.1-33.3-74.4-74.4-74.4h-372h-372
			c-41.1,0-74.4-33.3-74.4-74.4v-74.4v-74.4c0-41.1,33.3-74.4,74.4-74.4h74.4h74.4c41.1,0,74.4-33.3,74.4-74.4v-372v-372
			c0-41.1,33.3-74.4,74.4-74.4h74.4h74.4c41.1,0,74.4-33.3,74.4-74.4v-74.4v-74.4c0-41.1-33.3-74.4-74.4-74.4H3720h-74.4
			c-41.1,0-74.4-33.3-74.4-74.4v-74.4v-74.4c0-41.1-33.3-74.4-74.4-74.4h-74.4H3348c-41.1,0-74.4,33.3-74.4,74.4V5952v520.8
			c0,41.1-33.3,74.4-74.4,74.4h-74.4h-74.4c-41.1,0-74.4,33.3-74.4,74.4v74.4v74.4c0,41.1-33.3,74.4-74.4,74.4h-74.4h-74.4
			c-41.1,0-74.4,33.3-74.4,74.4v223.2v223.2c0,41.1-33.3,74.4-74.4,74.4h-74.4h-74.4c-41.1,0-74.4-33.3-74.4-74.4L2380.8,6844.7z
			 M4166.4,6695.9v-74.4c0-41.1,33.3-74.4,74.4-74.4h74.4h74.4c41.1,0,74.4-33.3,74.4-74.4v-223.2v-223.2
			c0-41.1-33.3-74.4-74.4-74.4h-74.4h-74.4c-41.1,0-74.4,33.3-74.4,74.4v223.2v223.2c0,41.1-33.3,74.4-74.4,74.4h-74.4h-74.4
			c-41.1,0-74.4,33.3-74.4,74.4v74.4v74.4c0,41.1,33.3,74.4,74.4,74.4h74.4h74.4c41.1,0,74.4-33.3,74.4-74.4L4166.4,6695.9
			L4166.4,6695.9z M2083.2,4612.8v-74.4c0-41.1-33.3-74.4-74.4-74.4h-74.4H1860c-41.1,0-74.4,33.3-74.4,74.4v74.4v74.4
			c0,41.1,33.3,74.4,74.4,74.4h74.4h74.4c41.1,0,74.4-33.3,74.4-74.4V4612.8z M6844.7,4612.8v-74.4c0-41.1-33.3-74.4-74.4-74.4
			h-74.4h-74.4c-41.1,0-74.4,33.3-74.4,74.4v74.4v74.4c0,41.1,33.3,74.4,74.4,74.4h74.4h74.4c41.1,0,74.4-33.3,74.4-74.4V4612.8z
			 M1190.4,4166.4v-223.2c0-41.1-33.3-74.4-74.4-74.4h-74.4h-74.4c-41.1,0-74.4-33.3-74.4-74.4V3720v-74.4
			c0-41.1,33.3-74.4,74.4-74.4h223.2h223.2c41.1,0,74.4,33.3,74.4,74.4v223.2V4092c0,41.1,33.3,74.4,74.4,74.4h223.2h223.2
			c41.1,0,74.4-33.3,74.4-74.4v-74.4v-74.4c0-41.1,33.3-74.4,74.4-74.4h74.4h74.4c41.1,0,74.4,33.3,74.4,74.4v74.4v74.4
			c0,41.1,33.3,74.4,74.4,74.4h74.4h74.4c41.1,0,74.4-33.3,74.4-74.4v-74.4v-74.4c0-41.1-33.3-74.4-74.4-74.4h-74.4h-74.4
			c-41.1,0-74.4-33.3-74.4-74.4V3720v-74.4c0-41.1-33.3-74.4-74.4-74.4H2232h-74.4c-41.1,0-74.4-33.3-74.4-74.4v-74.4V3348
			c0-41.1-33.3-74.4-74.4-74.4h-223.2h-223.2c-41.1,0-74.4-33.3-74.4-74.4v-74.4v-74.4c0-41.1-33.3-74.4-74.4-74.4h-74.4h-74.4
			c-41.1,0-74.4,33.3-74.4,74.4v74.4v74.4c0,41.1-33.3,74.4-74.4,74.4h-74.4h-74.4c-41.1,0-74.4,33.3-74.4,74.4v74.4v74.4
			c0,41.1-33.3,74.4-74.4,74.4H595.2H372c-41.1,0-74.4,33.3-74.4,74.4v74.4v74.4c0,41.1,33.3,74.4,74.4,74.4h74.4h74.4
			c41.1,0,74.4,33.3,74.4,74.4v74.4v74.4c0,41.1,33.3,74.4,74.4,74.4H744h74.4c41.1,0,74.4,33.3,74.4,74.4v74.4v74.4
			c0,41.1,33.3,74.4,74.4,74.4h74.4h74.4c41.1,0,74.4-33.3,74.4-74.4V4166.4z M3571.2,3422.4V3348c0-41.1-33.3-74.4-74.4-74.4h-74.4
			H3348c-41.1,0-74.4,33.3-74.4,74.4v74.4v74.4c0,41.1,33.3,74.4,74.4,74.4h74.4h74.4c41.1,0,74.4-33.3,74.4-74.4V3422.4z
			 M4464,3422.4V3348c0-41.1-33.3-74.4-74.4-74.4h-74.4h-74.4c-41.1,0-74.4,33.3-74.4,74.4v74.4v74.4c0,41.1,33.3,74.4,74.4,74.4
			h74.4h74.4c41.1,0,74.4-33.3,74.4-74.4V3422.4z M6844.7,3422.4V3348c0-41.1-33.3-74.4-74.4-74.4h-223.2h-223.2
			c-41.1,0-74.4,33.3-74.4,74.4v74.4v74.4c0,41.1,33.3,74.4,74.4,74.4h223.2h223.2c41.1,0,74.4-33.3,74.4-74.4V3422.4z
			 M3273.6,2827.2v-74.4c0-41.1-33.3-74.4-74.4-74.4h-74.4h-74.4c-41.1,0-74.4,33.3-74.4,74.4v74.4v74.4c0,41.1,33.3,74.4,74.4,74.4
			h74.4h74.4c41.1,0,74.4-33.3,74.4-74.4V2827.2z M6547.1,2827.2v-74.4c0-41.1-33.3-74.4-74.4-74.4h-74.4h-74.4
			c-41.1,0-74.4,33.3-74.4,74.4v74.4v74.4c0,41.1,33.3,74.4,74.4,74.4h74.4h74.4c41.1,0,74.4-33.3,74.4-74.4V2827.2z M5951.9,1934.4
			v-372c0-41.1-33.3-74.4-74.4-74.4h-372h-372c-41.1,0-74.4,33.3-74.4,74.4v372v372c0,41.1,33.3,74.4,74.4,74.4h372h372
			c41.1,0,74.4-33.3,74.4-74.4V1934.4z M4166.4,1636.8v-74.4c0-41.1-33.3-74.4-74.4-74.4h-74.4h-74.4c-41.1,0-74.4-33.3-74.4-74.4
			v-74.4v-74.4c0-41.1,33.3-74.4,74.4-74.4h74.4h74.4c41.1,0,74.4-33.3,74.4-74.4v-74.4v-74.4c0-41.1-33.3-74.4-74.4-74.4h-74.4
			h-74.4c-41.1,0-74.4,33.3-74.4,74.4v74.4v74.4c0,41.1-33.3,74.4-74.4,74.4H3720h-74.4c-41.1,0-74.4,33.3-74.4,74.4v74.4v74.4
			c0,41.1,33.3,74.4,74.4,74.4h74.4h74.4c41.1,0,74.4,33.3,74.4,74.4v74.4v74.4c0,41.1,33.3,74.4,74.4,74.4h74.4h74.4
			c41.1,0,74.4-33.3,74.4-74.4V1636.8z M6547.1,1041.6v-74.4c0-41.1,33.3-74.4,74.4-74.4h74.4h74.4c41.1,0,74.4-33.3,74.4-74.4V744
			v-74.4c0-41.1-33.3-74.4-74.4-74.4h-74.4h-74.4c-41.1,0-74.4,33.3-74.4,74.4V744v74.4c0,41.1-33.3,74.4-74.4,74.4h-74.4h-74.4
			c-41.1,0-74.4-33.3-74.4-74.4V744v-74.4c0-41.1-33.3-74.4-74.4-74.4h-223.2h-223.2c-41.1,0-74.4,33.3-74.4,74.4V744v74.4
			c0,41.1,33.3,74.4,74.4,74.4h74.4h74.4c41.1,0,74.4,33.3,74.4,74.4v74.4v74.4c0,41.1,33.3,74.4,74.4,74.4h223.2h223.2
			c41.1,0,74.4-33.3,74.4-74.4V1041.6z M3868.8,446.4V372c0-41.1-33.3-74.4-74.4-74.4H3720h-74.4c-41.1,0-74.4,33.3-74.4,74.4v74.4
			v74.4c0,41.1,33.3,74.4,74.4,74.4h74.4h74.4c41.1,0,74.4-33.3,74.4-74.4V446.4z"/>
		<path class="st0" d="M1785.6,3720v-74.4c0-41.1,33.3-74.4,74.4-74.4h74.4h74.4c41.1,0,74.4,33.3,74.4,74.4v74.4v74.4
			c0,41.1-33.3,74.4-74.4,74.4h-74.4H1860c-41.1,0-74.4-33.3-74.4-74.4V3720z"/>
		<path class="st0" d="M5356.7,1934.4V1860c0-41.1,33.3-74.4,74.4-74.4h74.4h74.4c41.1,0,74.4,33.3,74.4,74.4v74.4v74.4
			c0,41.1-33.3,74.4-74.4,74.4h-74.4h-74.4c-41.1,0-74.4-33.3-74.4-74.4V1934.4z"/>
		<path class="st0" d="M4761.6,7291.1v-74.4c0-41.1,33.3-74.4,74.4-74.4h74.4h74.4c41.1,0,74.4,33.3,74.4,74.4v74.4v74.4
			c0,41.1-33.3,74.4-74.4,74.4h-74.4H4836c-41.1,0-74.4-33.3-74.4-74.4V7291.1z"/>
		<path class="st0" d="M5356.7,6398.3v-967.2c0-41.1,33.3-74.4,74.4-74.4h967.2h967.2c41.1,0,74.4,33.3,74.4,74.4v967.2v967.2
			c0,41.1-33.3,74.4-74.4,74.4h-967.2h-967.2c-41.1,0-74.4-33.3-74.4-74.4V6398.3z M7142.3,6398.3v-669.6
			c0-41.1-33.3-74.4-74.4-74.4h-669.6h-669.6c-41.1,0-74.4,33.3-74.4,74.4v669.6v669.6c0,41.1,33.3,74.4,74.4,74.4h669.6h669.6
			c41.1,0,74.4-33.3,74.4-74.4V6398.3z"/>
		<path class="st0" d="M5951.9,6398.3v-372c0-41.1,33.3-74.4,74.4-74.4h372h372c41.1,0,74.4,33.3,74.4,74.4v372v372
			c0,41.1-33.3,74.4-74.4,74.4h-372h-372c-41.1,0-74.4-33.3-74.4-74.4V6398.3z"/>
		<path class="st0" d="M5059.1,4315.2v-74.4c0-41.1,33.3-74.4,74.4-74.4h223.2h223.2c41.1,0,74.4,33.3,74.4,74.4v74.4v74.4
			c0,41.1-33.3,74.4-74.4,74.4h-223.2h-223.2c-41.1,0-74.4-33.3-74.4-74.4V4315.2z"/>
		<path class="st0" d="M0,1041.6V74.4C0,33.3,33.3,0,74.4,0h967.2h967.2c41.1,0,74.4,33.3,74.4,74.4v967.2v967.2
			c0,41.1-33.3,74.4-74.4,74.4h-967.2H74.4c-41.1,0-74.4-33.3-74.4-74.4V1041.6z M1785.6,1041.6V372c0-41.1-33.3-74.4-74.4-74.4
			h-669.6H372c-41.1,0-74.4,33.3-74.4,74.4v669.6v669.6c0,41.1,33.3,74.4,74.4,74.4h669.6h669.6c41.1,0,74.4-33.3,74.4-74.4V1041.6z
			"/>
		<path class="st0" d="M595.2,1041.6v-372c0-41.1,33.3-74.4,74.4-74.4h372h372c41.1,0,74.4,33.3,74.4,74.4v372v372
			c0,41.1-33.3,74.4-74.4,74.4h-372h-372c-41.1,0-74.4-33.3-74.4-74.4V1041.6z"/>
		<path class="st0" d="M2678.4,744v-74.4c0-41.1-33.3-74.4-74.4-74.4h-74.4h-74.4c-41.1,0-74.4-33.3-74.4-74.4V297.6V74.4
			c0-41.1,33.3-74.4,74.4-74.4h223.2h223.2c41.1,0,74.4,33.3,74.4,74.4v372v372c0,41.1-33.3,74.4-74.4,74.4h-74.4h-74.4
			c-41.1,0-74.4-33.3-74.4-74.4V744z"/>
	</g>
</g>
</svg>
