<?xml version="1.0" encoding="utf-8"?>
<!-- Generator: Adobe Illustrator 27.4.0, SVG Export Plug-In . SVG Version: 6.00 Build 0)  -->
<svg version="1.1" id="Layer_1" xmlns="http://www.w3.org/2000/svg" xmlns:xlink="http://www.w3.org/1999/xlink" x="0px" y="0px"
	 viewBox="0 0 200 200" style="enable-background:new 0 0 200 200;" xml:space="preserve">
<g>
	<g transform="translate(0.000000,200.000000) scale(0.026882,-0.026882)">
		<path d="M0,6398.3V5356.7h1041.6h1041.6v1041.6v1041.6H1041.6H0V6398.3z M1785.6,6398.3v-744h-744h-744v744v744h744h744V6398.3z"
			/>
		<path d="M595.2,6398.3v-446.4h446.4H1488v446.4v446.4h-446.4H595.2V6398.3z"/>
		<path d="M2380.8,7291.1v-148.8h446.4h446.4v-297.6v-297.6h-148.8H2976v148.8v148.8h-148.8h-148.8v-148.8v-148.8h148.8H2976v-297.6
			v-297.6h-148.8h-148.8v-148.8v-148.8h-148.8h-148.8v-297.6v-297.6h148.8h148.8v-148.8v-148.8h-148.8h-148.8v-148.8V4464h148.8
			h148.8v-148.8v-148.8h148.8H2976v148.8V4464h148.8h148.8v148.8v148.8h-148.8H2976v297.6v297.6h148.8h148.8v148.8v148.8h148.8
			h148.8v-446.4v-446.4h446.4H4464v-148.8V4464h-446.4h-446.4v-148.8v-148.8h297.6h297.6v-148.8v-148.8H4464h297.6V3720v-148.8H4464
			h-297.6v-148.8v-148.8h-148.8h-148.8v148.8v148.8H3720h-148.8v-148.8v-148.8H3720h148.8v-148.8V2976H3720h-148.8v-148.8v-148.8
			h-148.8h-148.8v595.2v595.2H2976h-297.6V3720v-148.8h-148.8h-148.8v-148.8v-148.8h-297.6h-297.6v148.8v148.8h148.8h148.8V3720
			v148.8H2232h148.8v148.8v148.8H2232h-148.8v148.8V4464h-446.4h-446.4v148.8v148.8h148.8H1488v148.8v148.8h-297.6H892.8v-148.8
			v-148.8H744H595.2v148.8v148.8H297.6H0V3720V2380.8h148.8h148.8v297.6V2976h148.8h148.8v-297.6v-297.6H744h148.8v297.6V2976H744
			H595.2v148.8v148.8H446.4H297.6v148.8v148.8h297.6h297.6v297.6v297.6H1488h595.2v-148.8v-148.8h-446.4h-446.4v-297.6v-297.6h148.8
			H1488v-148.8V2976h-148.8h-148.8v-148.8v-148.8H1488h297.6v-148.8v-148.8h148.8h148.8v148.8v148.8h-148.8h-148.8v148.8V2976h297.6
			h297.6v-446.4v-446.4h148.8h148.8v-148.8v-148.8h148.8H2976v-148.8V1488h-297.6h-297.6v-297.6V892.8h148.8h148.8V744V595.2h-148.8
			h-148.8V297.6V0h892.8h892.8v446.4v446.4h148.8H4464v148.8v148.8h148.8h148.8V892.8V595.2h297.6h297.6V744v148.8h148.8h148.8
			v148.8v148.8h297.6h297.6v744v744h148.8h148.8v-297.6v-297.6h297.6h297.6v-148.8v-148.8h148.8h148.8v148.8v148.8h-148.8h-148.8
			v297.6v297.6h148.8h148.8V2976v297.6h-148.8h-148.8v148.8v148.8h148.8h148.8v446.4V4464h-148.8h-148.8v148.8v148.8h148.8h148.8
			v148.8v148.8h-148.8h-148.8v-148.8v-148.8h-744h-744v148.8v148.8h-148.8h-148.8v-148.8v-148.8h148.8h148.8v-148.8V4464h297.6
			h297.6v-297.6v-297.6h446.4h446.4V3720v-148.8h-148.8h-148.8v-148.8v-148.8h-297.6h-297.6v148.8v148.8h-148.8h-148.8V3720v148.8
			h-148.8h-148.8v148.8v148.8h-148.8h-148.8v148.8V4464h-148.8h-148.8v148.8v148.8h-148.8h-148.8v297.6v297.6h148.8h148.8v148.8
			v148.8h-148.8h-148.8v-148.8v-148.8h-148.8H4464v148.8v148.8h-148.8h-148.8v-148.8v-148.8h-148.8h-148.8v148.8v148.8H3720h-148.8
			v148.8v148.8h744h744v297.6v297.6h-297.6H4464v148.8v148.8h-297.6h-297.6v148.8v148.8h446.4h446.4v148.8v148.8h-446.4h-446.4
			v-148.8v-148.8H3720h-148.8v148.8v148.8H2976h-595.2V7291.1z M3868.8,6547.1v-297.6H3720h-148.8v297.6v297.6H3720h148.8V6547.1z
			 M4464,6398.3v-148.8h-148.8h-148.8v148.8v148.8h148.8H4464V6398.3z M3273.6,5803.1v-148.8h-148.8H2976v-148.8v-148.8h-148.8
			h-148.8v148.8v148.8h148.8H2976v148.8v148.8h148.8h148.8V5803.1z M2976,4612.8V4464h-148.8h-148.8v148.8v148.8h148.8H2976V4612.8z
			 M892.8,4315.2v-148.8H744H595.2v-148.8v-148.8H446.4H297.6v297.6V4464h297.6h297.6V4315.2z M7142.3,4315.2v-148.8h-297.6h-297.6
			v148.8V4464h297.6h297.6V4315.2z M5356.7,3868.8v-297.6h297.6h297.6v-297.6V2976h148.8h148.8v-148.8v-148.8h-148.8h-148.8v148.8
			V2976h-148.8h-148.8v148.8v148.8h-148.8h-148.8v148.8v148.8h-148.8h-148.8v-297.6V2976h148.8h148.8v-148.8v-148.8h-148.8h-148.8
			v148.8V2976h-148.8h-148.8v-297.6v-297.6h-148.8H4464v297.6V2976h-148.8h-148.8v-148.8v-148.8h-148.8h-148.8v148.8V2976h148.8
			h148.8v148.8v148.8h148.8H4464v-148.8V2976h148.8h148.8v297.6v297.6h148.8h148.8V3720v148.8h-148.8h-148.8v148.8v148.8h297.6
			h297.6V3868.8z M2976,3124.8v-446.4h148.8h148.8v-297.6v-297.6h148.8h148.8V2232v148.8H3720h148.8V2232v-148.8H3720h-148.8v-148.8
			v-148.8H3720h148.8V1488v-297.6H3720h-148.8v-148.8V892.8H3720h148.8V744V595.2H3720h-148.8V744v148.8h-148.8h-148.8V595.2V297.6
			h-148.8H2976V744v446.4h297.6h297.6V1488v297.6h-148.8h-148.8v148.8v148.8H2976h-297.6v744v744h148.8H2976V3124.8z M7142.3,2827.2
			v-148.8h-148.8h-148.8v148.8V2976h148.8h148.8V2827.2z M5951.9,1934.4V1488h-446.4h-446.4v446.4v446.4h446.4h446.4V1934.4z
			 M4761.6,1934.4v-148.8h-148.8H4464V1488v-297.6h-148.8h-148.8V1488v297.6h148.8H4464v148.8v148.8h148.8h148.8V1934.4z
			 M5356.7,1041.6V892.8h-148.8h-148.8v148.8v148.8h148.8h148.8V1041.6z"/>
		<path d="M5356.7,1934.4v-148.8h148.8h148.8v148.8v148.8h-148.8h-148.8V1934.4z"/>
		<path d="M5356.7,6398.3V5356.7h1041.6h1041.6v1041.6v1041.6H6398.3H5356.7V6398.3z M7142.3,6398.3v-744h-744h-744v744v744h744h744
			V6398.3z"/>
		<path d="M5951.9,6398.3v-446.4h446.4h446.4v446.4v446.4h-446.4h-446.4V6398.3z"/>
		<path d="M1785.6,4910.3v-148.8h148.8h148.8v148.8v148.8h-148.8h-148.8V4910.3z"/>
		<path d="M0,1041.6V0h1041.6h1041.6v1041.6v1041.6H1041.6H0V1041.6z M1785.6,1041.6v-744h-744h-744v744v744h744h744V1041.6z"/>
		<path d="M595.2,1041.6V595.2h446.4H1488v446.4V1488h-446.4H595.2V1041.6z"/>
		<path d="M6844.7,1190.4V892.8h-446.4h-446.4V744V595.2h-148.8h-148.8V446.4V297.6h297.6h297.6V148.8V0h148.8h148.8v148.8v148.8
			h297.6h297.6V148.8V0h148.8h148.8v744v744h-297.6h-297.6V1190.4z M6547.1,446.4V297.6h-148.8h-148.8v148.8v148.8h148.8h148.8
			V446.4z"/>
		<path d="M4761.6,148.8V0h297.6h297.6v148.8v148.8h-297.6h-297.6V148.8z"/>
	</g>
</g>
</svg>
