<?xml version="1.0" encoding="utf-8"?>
<!-- Generator: Adobe Illustrator 27.4.0, SVG Export Plug-In . SVG Version: 6.00 Build 0)  -->
<svg version="1.1" id="Layer_1" xmlns="http://www.w3.org/2000/svg" xmlns:xlink="http://www.w3.org/1999/xlink" x="0px" y="0px"
	 viewBox="0 0 200 200" style="enable-background:new 0 0 200 200;" xml:space="preserve">
<style type="text/css">
	.st0{fill:#0275FF;}
</style>
<g>
	<g transform="translate(0.000000,200.000000) scale(0.026882,-0.026882)">
		<path class="st0" d="M0,6398.3v-967.2c0-41.1,33.3-74.4,74.4-74.4h967.2h967.2c41.1,0,74.4,33.3,74.4,74.4v967.2v967.2
			c0,41.1-33.3,74.4-74.4,74.4h-967.2H74.4c-41.1,0-74.4-33.3-74.4-74.4V6398.3z M1785.6,6398.3v-669.6c0-41.1-33.3-74.4-74.4-74.4
			h-669.6H372c-41.1,0-74.4,33.3-74.4,74.4v669.6v669.6c0,41.1,33.3,74.4,74.4,74.4h669.6h669.6c41.1,0,74.4-33.3,74.4-74.4V6398.3z
			"/>
		<path class="st0" d="M595.2,6398.3v-372c0-41.1,33.3-74.4,74.4-74.4h372h372c41.1,0,74.4,33.3,74.4,74.4v372v372
			c0,41.1-33.3,74.4-74.4,74.4h-372h-372c-41.1,0-74.4-33.3-74.4-74.4V6398.3z"/>
		<path class="st0" d="M2678.4,7291.1v-74.4c0-41.1-33.3-74.4-74.4-74.4h-74.4h-74.4c-41.1,0-74.4-33.3-74.4-74.4v-74.4v-74.4
			c0-41.1,33.3-74.4,74.4-74.4h74.4h74.4c41.1,0,74.4-33.3,74.4-74.4v-74.4v-74.4c0-41.1-33.3-74.4-74.4-74.4h-74.4h-74.4
			c-41.1,0-74.4-33.3-74.4-74.4v-74.4v-74.4c0-41.1,33.3-74.4,74.4-74.4h223.2h223.2c41.1,0,74.4-33.3,74.4-74.4v-372v-372
			c0-41.1,33.3-74.4,74.4-74.4h74.4h74.4c41.1,0,74.4,33.3,74.4,74.4v372v372c0,41.1,33.3,74.4,74.4,74.4h74.4h74.4
			c41.1,0,74.4-33.3,74.4-74.4v-74.4v-74.4c0-41.1,33.3-74.4,74.4-74.4h74.4h74.4c41.1,0,74.4,33.3,74.4,74.4v74.4v74.4
			c0,41.1,33.3,74.4,74.4,74.4h74.4h74.4c41.1,0,74.4-33.3,74.4-74.4v-74.4v-74.4c0-41.1,33.3-74.4,74.4-74.4h74.4h74.4
			c41.1,0,74.4-33.3,74.4-74.4v-74.4v-74.4c0-41.1-33.3-74.4-74.4-74.4h-74.4h-74.4c-41.1,0-74.4-33.3-74.4-74.4v-223.2v-223.2
			c0-41.1-33.3-74.4-74.4-74.4h-74.4h-74.4c-41.1,0-74.4,33.3-74.4,74.4v223.2v223.2c0,41.1-33.3,74.4-74.4,74.4H3720h-74.4
			c-41.1,0-74.4-33.3-74.4-74.4v-372v-372c0-41.1,33.3-74.4,74.4-74.4H4464h818.4c41.1,0,74.4,33.3,74.4,74.4v74.4v74.4
			c0,41.1-33.3,74.4-74.4,74.4H5208h-74.4c-41.1,0-74.4,33.3-74.4,74.4v223.2v223.2c0,41.1-33.3,74.4-74.4,74.4h-74.4H4836
			c-41.1,0-74.4,33.3-74.4,74.4v74.4v74.4c0,41.1-33.3,74.4-74.4,74.4h-74.4h-74.4c-41.1,0-74.4,33.3-74.4,74.4v74.4v74.4
			c0,41.1,33.3,74.4,74.4,74.4h223.2h223.2c41.1,0,74.4,33.3,74.4,74.4v223.2v223.2c0,41.1-33.3,74.4-74.4,74.4h-74.4H4836
			c-41.1,0-74.4,33.3-74.4,74.4v74.4v74.4c0,41.1,33.3,74.4,74.4,74.4h74.4h74.4c41.1,0,74.4,33.3,74.4,74.4v74.4v74.4
			c0,41.1-33.3,74.4-74.4,74.4h-74.4H4836c-41.1,0-74.4-33.3-74.4-74.4v-74.4v-74.4c0-41.1-33.3-74.4-74.4-74.4h-74.4h-74.4
			c-41.1,0-74.4-33.3-74.4-74.4v-74.4v-74.4c0-41.1-33.3-74.4-74.4-74.4h-74.4h-74.4c-41.1,0-74.4-33.3-74.4-74.4v-74.4v-74.4
			c0-41.1-33.3-74.4-74.4-74.4h-74.4h-74.4c-41.1,0-74.4-33.3-74.4-74.4v-74.4v-74.4c0-41.1-33.3-74.4-74.4-74.4H3720h-74.4
			c-41.1,0-74.4,33.3-74.4,74.4v223.2v223.2c0,41.1,33.3,74.4,74.4,74.4h74.4h74.4c41.1,0,74.4,33.3,74.4,74.4v74.4v74.4
			c0,41.1,33.3,74.4,74.4,74.4h74.4h74.4c41.1,0,74.4,33.3,74.4,74.4v74.4v74.4c0,41.1-33.3,74.4-74.4,74.4h-74.4h-74.4
			c-41.1,0-74.4-33.3-74.4-74.4v-74.4v-74.4c0-41.1-33.3-74.4-74.4-74.4h-223.2H3348c-41.1,0-74.4-33.3-74.4-74.4v-74.4v-74.4
			c0-41.1-33.3-74.4-74.4-74.4h-74.4h-74.4c-41.1,0-74.4,33.3-74.4,74.4v223.2v223.2c0,41.1-33.3,74.4-74.4,74.4h-74.4h-74.4
			c-41.1,0-74.4-33.3-74.4-74.4V7291.1z M3273.6,6398.3v-74.4c0-41.1-33.3-74.4-74.4-74.4h-74.4h-74.4c-41.1,0-74.4,33.3-74.4,74.4
			v74.4v74.4c0,41.1,33.3,74.4,74.4,74.4h74.4h74.4c41.1,0,74.4-33.3,74.4-74.4V6398.3z M4761.6,5505.5v-74.4
			c0-41.1-33.3-74.4-74.4-74.4h-74.4h-74.4c-41.1,0-74.4,33.3-74.4,74.4v74.4v74.4c0,41.1,33.3,74.4,74.4,74.4h74.4h74.4
			c41.1,0,74.4-33.3,74.4-74.4V5505.5L4761.6,5505.5z"/>
		<path class="st0" d="M5356.7,6398.3v-967.2c0-41.1,33.3-74.4,74.4-74.4h967.2h967.2c41.1,0,74.4,33.3,74.4,74.4v967.2v967.2
			c0,41.1-33.3,74.4-74.4,74.4h-967.2h-967.2c-41.1,0-74.4-33.3-74.4-74.4V6398.3z M7142.3,6398.3v-669.6
			c0-41.1-33.3-74.4-74.4-74.4h-669.6h-669.6c-41.1,0-74.4,33.3-74.4,74.4v669.6v669.6c0,41.1,33.3,74.4,74.4,74.4h669.6h669.6
			c41.1,0,74.4-33.3,74.4-74.4V6398.3z"/>
		<path class="st0" d="M5951.9,6398.3v-372c0-41.1,33.3-74.4,74.4-74.4h372h372c41.1,0,74.4,33.3,74.4,74.4v372v372
			c0,41.1-33.3,74.4-74.4,74.4h-372h-372c-41.1,0-74.4-33.3-74.4-74.4V6398.3z"/>
		<path class="st0" d="M2380.8,5654.3v-223.2c0-41.1,33.3-74.4,74.4-74.4h74.4h74.4c41.1,0,74.4,33.3,74.4,74.4v223.2v223.2
			c0,41.1-33.3,74.4-74.4,74.4h-74.4h-74.4c-41.1,0-74.4-33.3-74.4-74.4V5654.3z"/>
		<path class="st0" d="M0,4910.3v-74.4c0-41.1,33.3-74.4,74.4-74.4h223.2h223.2c41.1,0,74.4-33.3,74.4-74.4V4464v-223.2
			c0-41.1,33.3-74.4,74.4-74.4H744h74.4c41.1,0,74.4,33.3,74.4,74.4V4464v223.2c0,41.1,33.3,74.4,74.4,74.4h74.4h74.4
			c41.1,0,74.4-33.3,74.4-74.4v-74.4v-74.4c0-41.1,33.3-74.4,74.4-74.4H1488h223.2c41.1,0,74.4-33.3,74.4-74.4v-74.4v-74.4
			c0-41.1,33.3-74.4,74.4-74.4h74.4h74.4c41.1,0,74.4-33.3,74.4-74.4v-74.4v-74.4c0-41.1-33.3-74.4-74.4-74.4h-74.4H1860
			c-41.1,0-74.4-33.3-74.4-74.4V3720v-74.4c0-41.1,33.3-74.4,74.4-74.4h74.4h74.4c41.1,0,74.4-33.3,74.4-74.4v-74.4V3348
			c0-41.1-33.3-74.4-74.4-74.4h-223.2h-223.2c-41.1,0-74.4,33.3-74.4,74.4v372v372c0,41.1-33.3,74.4-74.4,74.4h-74.4h-74.4
			c-41.1,0-74.4-33.3-74.4-74.4v-74.4v-74.4c0-41.1-33.3-74.4-74.4-74.4h-74.4h-74.4c-41.1,0-74.4-33.3-74.4-74.4V3720v-74.4
			c0-41.1-33.3-74.4-74.4-74.4H744h-74.4c-41.1,0-74.4,33.3-74.4,74.4v74.4v74.4c0,41.1-33.3,74.4-74.4,74.4h-74.4H372
			c-41.1,0-74.4,33.3-74.4,74.4v223.2v223.2c0,41.1-33.3,74.4-74.4,74.4h-74.4H74.4c-41.1,0-74.4-33.3-74.4-74.4v-967.2v-967.2
			c0-41.1,33.3-74.4,74.4-74.4h74.4h74.4c41.1,0,74.4,33.3,74.4,74.4V2976v520.8c0,41.1,33.3,74.4,74.4,74.4h74.4h74.4
			c41.1,0,74.4-33.3,74.4-74.4v-74.4V3348c0-41.1,33.3-74.4,74.4-74.4H744h74.4c41.1,0,74.4-33.3,74.4-74.4V2976v-223.2
			c0-41.1-33.3-74.4-74.4-74.4H744h-74.4c-41.1,0-74.4-33.3-74.4-74.4v-74.4v-74.4c0-41.1,33.3-74.4,74.4-74.4H744h74.4
			c41.1,0,74.4,33.3,74.4,74.4v74.4v74.4c0,41.1,33.3,74.4,74.4,74.4h74.4h74.4c41.1,0,74.4-33.3,74.4-74.4v-74.4v-74.4
			c0-41.1,33.3-74.4,74.4-74.4h372h372c41.1,0,74.4,33.3,74.4,74.4v74.4v74.4c0,41.1,33.3,74.4,74.4,74.4h372h372
			c41.1,0,74.4-33.3,74.4-74.4v-74.4v-74.4c0-41.1,33.3-74.4,74.4-74.4h74.4h74.4c41.1,0,74.4,33.3,74.4,74.4v74.4v74.4
			c0,41.1-33.3,74.4-74.4,74.4h-74.4h-74.4c-41.1,0-74.4,33.3-74.4,74.4v74.4v74.4c0,41.1-33.3,74.4-74.4,74.4h-372h-372
			c-41.1,0-74.4,33.3-74.4,74.4v74.4v74.4c0,41.1,33.3,74.4,74.4,74.4h74.4h74.4c41.1,0,74.4,33.3,74.4,74.4v74.4v74.4
			c0,41.1,33.3,74.4,74.4,74.4h223.2h223.2c41.1,0,74.4-33.3,74.4-74.4v-74.4V3348c0-41.1,33.3-74.4,74.4-74.4h74.4h74.4
			c41.1,0,74.4,33.3,74.4,74.4v74.4v74.4c0,41.1,33.3,74.4,74.4,74.4h74.4h74.4c41.1,0,74.4-33.3,74.4-74.4v-74.4V3348
			c0-41.1,33.3-74.4,74.4-74.4h74.4h74.4c41.1,0,74.4,33.3,74.4,74.4v74.4v74.4c0,41.1,33.3,74.4,74.4,74.4h74.4h74.4
			c41.1,0,74.4-33.3,74.4-74.4V2976v-520.8c0-41.1,33.3-74.4,74.4-74.4h74.4h74.4c41.1,0,74.4,33.3,74.4,74.4v74.4v74.4
			c0,41.1,33.3,74.4,74.4,74.4h74.4h74.4c41.1,0,74.4-33.3,74.4-74.4v-520.8v-520.8c0-41.1-33.3-74.4-74.4-74.4h-74.4h-74.4
			c-41.1,0-74.4,33.3-74.4,74.4v74.4v74.4c0,41.1-33.3,74.4-74.4,74.4h-74.4h-74.4c-41.1,0-74.4,33.3-74.4,74.4v74.4v74.4
			c0,41.1-33.3,74.4-74.4,74.4h-520.8h-520.8c-41.1,0-74.4-33.3-74.4-74.4v-74.4V1860c0-41.1,33.3-74.4,74.4-74.4h74.4h74.4
			c41.1,0,74.4-33.3,74.4-74.4V1488v-223.2c0-41.1,33.3-74.4,74.4-74.4h74.4h74.4c41.1,0,74.4-33.3,74.4-74.4v-74.4v-74.4
			c0-41.1,33.3-74.4,74.4-74.4h74.4h74.4c41.1,0,74.4-33.3,74.4-74.4V744v-74.4c0-41.1-33.3-74.4-74.4-74.4H3720h-74.4
			c-41.1,0-74.4-33.3-74.4-74.4V297.6V74.4c0-41.1,33.3-74.4,74.4-74.4h74.4h74.4c41.1,0,74.4,33.3,74.4,74.4v74.4v74.4
			c0,41.1,33.3,74.4,74.4,74.4h74.4h74.4c41.1,0,74.4-33.3,74.4-74.4v-74.4V74.4c0-41.1,33.3-74.4,74.4-74.4h74.4h74.4
			c41.1,0,74.4,33.3,74.4,74.4v74.4v74.4c0,41.1,33.3,74.4,74.4,74.4h372h372c41.1,0,74.4,33.3,74.4,74.4v74.4v74.4
			c0,41.1-33.3,74.4-74.4,74.4H5208h-74.4c-41.1,0-74.4,33.3-74.4,74.4V744v74.4c0,41.1-33.3,74.4-74.4,74.4h-74.4H4836
			c-41.1,0-74.4,33.3-74.4,74.4v74.4v74.4c0,41.1,33.3,74.4,74.4,74.4h223.2h223.2c41.1,0,74.4-33.3,74.4-74.4v-74.4v-74.4
			c0-41.1,33.3-74.4,74.4-74.4h74.4h74.4c41.1,0,74.4,33.3,74.4,74.4v74.4v74.4c0,41.1,33.3,74.4,74.4,74.4h74.4h74.4
			c41.1,0,74.4-33.3,74.4-74.4v-74.4v-74.4c0-41.1,33.3-74.4,74.4-74.4h74.4h74.4c41.1,0,74.4-33.3,74.4-74.4V744v-74.4
			c0-41.1-33.3-74.4-74.4-74.4H5952h-223.2c-41.1,0-74.4-33.3-74.4-74.4V297.6V74.4c0-41.1,33.3-74.4,74.4-74.4h818.4h818.4
			c41.1,0,74.4,33.3,74.4,74.4V744v669.6c0,41.1-33.3,74.4-74.4,74.4h-372h-372c-41.1,0-74.4,33.3-74.4,74.4v74.4v74.4
			c0,41.1,33.3,74.4,74.4,74.4h372h372c41.1,0,74.4,33.3,74.4,74.4v74.4v74.4c0,41.1-33.3,74.4-74.4,74.4h-372h-372
			c-41.1,0-74.4,33.3-74.4,74.4v74.4v74.4c0,41.1,33.3,74.4,74.4,74.4h74.4h74.4c41.1,0,74.4,33.3,74.4,74.4v74.4v74.4
			c0,41.1-33.3,74.4-74.4,74.4H6696h-74.4c-41.1,0-74.4-33.3-74.4-74.4v-74.4v-74.4c0-41.1-33.3-74.4-74.4-74.4h-74.4H6324
			c-41.1,0-74.4,33.3-74.4,74.4v223.2v223.2c0,41.1,33.3,74.4,74.4,74.4h74.4h74.4c41.1,0,74.4,33.3,74.4,74.4v223.2v223.2
			c0,41.1,33.3,74.4,74.4,74.4h74.4h74.4c41.1,0,74.4-33.3,74.4-74.4v-223.2v-223.2c0-41.1,33.3-74.4,74.4-74.4h74.4h74.4
			c41.1,0,74.4-33.3,74.4-74.4v-74.4v-74.4c0-41.1,33.3-74.4,74.4-74.4h74.4h74.4c41.1,0,74.4,33.3,74.4,74.4V2976v223.2
			c0,41.1-33.3,74.4-74.4,74.4h-74.4h-74.4c-41.1,0-74.4,33.3-74.4,74.4v74.4v74.4c0,41.1,33.3,74.4,74.4,74.4h74.4h74.4
			c41.1,0,74.4,33.3,74.4,74.4v372v372c0,41.1-33.3,74.4-74.4,74.4h-74.4h-74.4c-41.1,0-74.4,33.3-74.4,74.4v223.2v223.2
			c0,41.1-33.3,74.4-74.4,74.4h-74.4h-74.4c-41.1,0-74.4-33.3-74.4-74.4v-372v-372c0-41.1,33.3-74.4,74.4-74.4h74.4h74.4
			c41.1,0,74.4-33.3,74.4-74.4v-74.4v-74.4c0-41.1-33.3-74.4-74.4-74.4h-223.2h-223.2c-41.1,0-74.4-33.3-74.4-74.4V3720v-74.4
			c0-41.1-33.3-74.4-74.4-74.4h-74.4H6324c-41.1,0-74.4,33.3-74.4,74.4v74.4v74.4c0,41.1-33.3,74.4-74.4,74.4h-74.4h-74.4
			c-41.1,0-74.4-33.3-74.4-74.4V3720v-74.4c0-41.1-33.3-74.4-74.4-74.4h-74.4h-74.4c-41.1,0-74.4,33.3-74.4,74.4v223.2V4092
			c0,41.1-33.3,74.4-74.4,74.4h-223.2h-223.2c-41.1,0-74.4,33.3-74.4,74.4v74.4v74.4c0,41.1-33.3,74.4-74.4,74.4h-818.4H3348
			c-41.1,0-74.4-33.3-74.4-74.4v-74.4v-74.4c0-41.1-33.3-74.4-74.4-74.4h-74.4h-74.4c-41.1,0-74.4,33.3-74.4,74.4V4464v223.2
			c0,41.1,33.3,74.4,74.4,74.4h74.4h74.4c41.1,0,74.4,33.3,74.4,74.4v74.4v74.4c0,41.1-33.3,74.4-74.4,74.4h-669.6H1860
			c-41.1,0-74.4-33.3-74.4-74.4v-74.4V4836c0-41.1-33.3-74.4-74.4-74.4h-74.4h-74.4c-41.1,0-74.4,33.3-74.4,74.4v74.4v74.4
			c0,41.1-33.3,74.4-74.4,74.4H744H74.4c-41.1,0-74.4-33.3-74.4-74.4V4910.3z M2380.8,4612.8v-74.4c0-41.1,33.3-74.4,74.4-74.4h74.4
			h74.4c41.1,0,74.4-33.3,74.4-74.4v-223.2v-223.2c0-41.1-33.3-74.4-74.4-74.4h-74.4h-74.4c-41.1,0-74.4-33.3-74.4-74.4V3720v-74.4
			c0-41.1-33.3-74.4-74.4-74.4H2232h-74.4c-41.1,0-74.4,33.3-74.4,74.4v74.4v74.4c0,41.1,33.3,74.4,74.4,74.4h74.4h74.4
			c41.1,0,74.4,33.3,74.4,74.4v223.2v223.2c0,41.1-33.3,74.4-74.4,74.4h-223.2H1860c-41.1,0-74.4,33.3-74.4,74.4v74.4v74.4
			c0,41.1,33.3,74.4,74.4,74.4h223.2h223.2c41.1,0,74.4-33.3,74.4-74.4V4612.8z M4166.4,4017.6v-74.4c0-41.1-33.3-74.4-74.4-74.4
			h-74.4h-74.4c-41.1,0-74.4-33.3-74.4-74.4V3720v-74.4c0-41.1-33.3-74.4-74.4-74.4H3720h-74.4c-41.1,0-74.4,33.3-74.4,74.4v223.2
			V4092c0,41.1,33.3,74.4,74.4,74.4h223.2H4092c41.1,0,74.4-33.3,74.4-74.4V4017.6z M4761.6,4017.6v-74.4
			c0-41.1,33.3-74.4,74.4-74.4h74.4h74.4c41.1,0,74.4-33.3,74.4-74.4v-223.2V3348c0-41.1-33.3-74.4-74.4-74.4h-223.2h-223.2
			c-41.1,0-74.4,33.3-74.4,74.4v372v372c0,41.1,33.3,74.4,74.4,74.4h74.4h74.4c41.1,0,74.4-33.3,74.4-74.4V4017.6L4761.6,4017.6z
			 M3273.6,3720v-74.4c0-41.1-33.3-74.4-74.4-74.4h-74.4h-74.4c-41.1,0-74.4,33.3-74.4,74.4v74.4v74.4c0,41.1,33.3,74.4,74.4,74.4
			h74.4h74.4c41.1,0,74.4-33.3,74.4-74.4V3720z M5654.3,3422.4V3348c0-41.1-33.3-74.4-74.4-74.4h-74.4h-74.4
			c-41.1,0-74.4,33.3-74.4,74.4v74.4v74.4c0,41.1,33.3,74.4,74.4,74.4h74.4h74.4c41.1,0,74.4-33.3,74.4-74.4V3422.4z M6249.5,3422.4
			V3348c0-41.1-33.3-74.4-74.4-74.4h-74.4h-74.4c-41.1,0-74.4,33.3-74.4,74.4v74.4v74.4c0,41.1,33.3,74.4,74.4,74.4h74.4h74.4
			c41.1,0,74.4-33.3,74.4-74.4V3422.4z M1488,2827.2v-74.4c0-41.1-33.3-74.4-74.4-74.4h-74.4h-74.4c-41.1,0-74.4,33.3-74.4,74.4
			v74.4v74.4c0,41.1,33.3,74.4,74.4,74.4h74.4h74.4c41.1,0,74.4-33.3,74.4-74.4V2827.2z M2083.2,2827.2v-74.4
			c0-41.1-33.3-74.4-74.4-74.4h-74.4H1860c-41.1,0-74.4,33.3-74.4,74.4v74.4v74.4c0,41.1,33.3,74.4,74.4,74.4h74.4h74.4
			c41.1,0,74.4-33.3,74.4-74.4V2827.2z M5356.7,2827.2v-74.4c0-41.1-33.3-74.4-74.4-74.4h-223.2h-223.2c-41.1,0-74.4,33.3-74.4,74.4
			v74.4v74.4c0,41.1,33.3,74.4,74.4,74.4h223.2h223.2c41.1,0,74.4-33.3,74.4-74.4V2827.2z M5951.9,1934.4v-372
			c0-41.1-33.3-74.4-74.4-74.4h-372h-372c-41.1,0-74.4,33.3-74.4,74.4v372v372c0,41.1,33.3,74.4,74.4,74.4h372h372
			c41.1,0,74.4-33.3,74.4-74.4V1934.4z M6547.1,1934.4V1860c0-41.1-33.3-74.4-74.4-74.4h-74.4h-74.4c-41.1,0-74.4,33.3-74.4,74.4
			v74.4v74.4c0,41.1,33.3,74.4,74.4,74.4h74.4h74.4c41.1,0,74.4-33.3,74.4-74.4V1934.4z M4166.4,1636.8v-74.4
			c0-41.1,33.3-74.4,74.4-74.4h74.4h74.4c41.1,0,74.4-33.3,74.4-74.4v-223.2V967.2c0-41.1,33.3-74.4,74.4-74.4h74.4h74.4
			c41.1,0,74.4-33.3,74.4-74.4V744v-74.4c0-41.1-33.3-74.4-74.4-74.4h-74.4h-74.4c-41.1,0-74.4-33.3-74.4-74.4v-74.4V372
			c0-41.1-33.3-74.4-74.4-74.4h-74.4h-74.4c-41.1,0-74.4,33.3-74.4,74.4v74.4v74.4c0,41.1,33.3,74.4,74.4,74.4h74.4h74.4
			c41.1,0,74.4,33.3,74.4,74.4V744v74.4c0,41.1-33.3,74.4-74.4,74.4h-74.4h-74.4c-41.1,0-74.4,33.3-74.4,74.4v74.4v74.4
			c0,41.1-33.3,74.4-74.4,74.4h-223.2h-223.2c-41.1,0-74.4,33.3-74.4,74.4V1488v223.2c0,41.1,33.3,74.4,74.4,74.4h223.2H4092
			c41.1,0,74.4-33.3,74.4-74.4L4166.4,1636.8L4166.4,1636.8z M6547.1,1339.2v-74.4c0-41.1-33.3-74.4-74.4-74.4h-74.4h-74.4
			c-41.1,0-74.4,33.3-74.4,74.4v74.4v74.4c0,41.1,33.3,74.4,74.4,74.4h74.4h74.4c41.1,0,74.4-33.3,74.4-74.4V1339.2z M7142.3,595.2
			V372c0-41.1-33.3-74.4-74.4-74.4h-223.2h-223.2c-41.1,0-74.4,33.3-74.4,74.4v74.4v74.4c0,41.1,33.3,74.4,74.4,74.4h74.4h74.4
			c41.1,0,74.4,33.3,74.4,74.4V744v74.4c0,41.1,33.3,74.4,74.4,74.4h74.4h74.4c41.1,0,74.4-33.3,74.4-74.4L7142.3,595.2
			L7142.3,595.2z"/>
		<path class="st0" d="M5356.7,1934.4V1860c0-41.1,33.3-74.4,74.4-74.4h74.4h74.4c41.1,0,74.4,33.3,74.4,74.4v74.4v74.4
			c0,41.1-33.3,74.4-74.4,74.4h-74.4h-74.4c-41.1,0-74.4-33.3-74.4-74.4V1934.4z"/>
		<path class="st0" d="M5654.3,4761.6v-223.2c0-41.1,33.3-74.4,74.4-74.4h74.4h74.4c41.1,0,74.4-33.3,74.4-74.4v-74.4v-74.4
			c0-41.1,33.3-74.4,74.4-74.4h223.2h223.2c41.1,0,74.4,33.3,74.4,74.4v74.4v74.4c0,41.1-33.3,74.4-74.4,74.4h-223.2h-223.2
			c-41.1,0-74.4,33.3-74.4,74.4v223.2v223.2c0,41.1-33.3,74.4-74.4,74.4h-74.4h-74.4c-41.1,0-74.4-33.3-74.4-74.4V4761.6z"/>
		<path class="st0" d="M6249.5,4910.3v-74.4c0-41.1,33.3-74.4,74.4-74.4h74.4h74.4c41.1,0,74.4,33.3,74.4,74.4v74.4v74.4
			c0,41.1-33.3,74.4-74.4,74.4h-74.4h-74.4c-41.1,0-74.4-33.3-74.4-74.4V4910.3z"/>
		<path class="st0" d="M3571.2,2678.4v-223.2c0-41.1,33.3-74.4,74.4-74.4h74.4h74.4c41.1,0,74.4,33.3,74.4,74.4v223.2v223.2
			c0,41.1-33.3,74.4-74.4,74.4H3720h-74.4c-41.1,0-74.4-33.3-74.4-74.4V2678.4z"/>
		<path class="st0" d="M2380.8,2083.2V1860c0-41.1,33.3-74.4,74.4-74.4h74.4h74.4c41.1,0,74.4,33.3,74.4,74.4v223.2v223.2
			c0,41.1-33.3,74.4-74.4,74.4h-74.4h-74.4c-41.1,0-74.4-33.3-74.4-74.4V2083.2z"/>
		<path class="st0" d="M0,1041.6V74.4C0,33.3,33.3,0,74.4,0h967.2h967.2c41.1,0,74.4,33.3,74.4,74.4v967.2v967.2
			c0,41.1-33.3,74.4-74.4,74.4h-967.2H74.4c-41.1,0-74.4-33.3-74.4-74.4V1041.6z M1785.6,1041.6V372c0-41.1-33.3-74.4-74.4-74.4
			h-669.6H372c-41.1,0-74.4,33.3-74.4,74.4v669.6v669.6c0,41.1,33.3,74.4,74.4,74.4h669.6h669.6c41.1,0,74.4-33.3,74.4-74.4V1041.6z
			"/>
		<path class="st0" d="M595.2,1041.6v-372c0-41.1,33.3-74.4,74.4-74.4h372h372c41.1,0,74.4,33.3,74.4,74.4v372v372
			c0,41.1-33.3,74.4-74.4,74.4h-372h-372c-41.1,0-74.4-33.3-74.4-74.4V1041.6z"/>
		<path class="st0" d="M2380.8,744V74.4c0-41.1,33.3-74.4,74.4-74.4h74.4h74.4c41.1,0,74.4,33.3,74.4,74.4v223.2v223.2
			c0,41.1,33.3,74.4,74.4,74.4H2976h223.2c41.1,0,74.4,33.3,74.4,74.4V744v74.4c0,41.1-33.3,74.4-74.4,74.4H2976h-223.2
			c-41.1,0-74.4,33.3-74.4,74.4v74.4v74.4c0,41.1,33.3,74.4,74.4,74.4h74.4h74.4c41.1,0,74.4,33.3,74.4,74.4v74.4v74.4
			c0,41.1-33.3,74.4-74.4,74.4h-223.2h-223.2c-41.1,0-74.4-33.3-74.4-74.4L2380.8,744z"/>
		<path class="st0" d="M2976,148.8V74.4c0-41.1,33.3-74.4,74.4-74.4h74.4h74.4c41.1,0,74.4,33.3,74.4,74.4v74.4v74.4
			c0,41.1-33.3,74.4-74.4,74.4h-74.4h-74.4c-41.1,0-74.4-33.3-74.4-74.4V148.8z"/>
	</g>
</g>
</svg>
