<?xml version="1.0" encoding="utf-8"?>
<!-- Generator: Adobe Illustrator 27.4.0, SVG Export Plug-In . SVG Version: 6.00 Build 0)  -->
<svg version="1.1" id="Layer_1" xmlns="http://www.w3.org/2000/svg" xmlns:xlink="http://www.w3.org/1999/xlink" x="0px" y="0px"
	 viewBox="0 0 200 200" style="enable-background:new 0 0 200 200;" xml:space="preserve">
<style type="text/css">
	.st0{fill:#767676;}
</style>
<g>
	<g transform="translate(0.000000,200.000000) scale(0.026882,-0.026882)">
		<path class="st0" d="M0,6398.3V5356.7h1041.6h1041.6v1041.6v1041.6H1041.6H0V6398.3z M1785.6,6398.3v-744h-744h-744v744v744h744
			h744V6398.3z"/>
		<path class="st0" d="M595.2,6398.3v-446.4h446.4H1488v446.4v446.4h-446.4H595.2V6398.3z"/>
		<path class="st0" d="M2678.4,7291.1v-148.8h-148.8h-148.8v-148.8v-148.8h148.8h148.8v-148.8v-148.8h-148.8h-148.8v-148.8v-148.8
			h297.6H2976v-446.4v-446.4h148.8h148.8v446.4v446.4h148.8h148.8v-148.8v-148.8H3720h148.8v148.8v148.8h148.8h148.8v-148.8v-148.8
			h148.8H4464v-148.8v-148.8h-148.8h-148.8v-297.6v-297.6h-148.8h-148.8v297.6v297.6H3720h-148.8v-446.4v-446.4H4464h892.8v148.8
			v148.8H5208h-148.8v297.6v297.6h-148.8h-148.8v148.8v148.8h-148.8H4464v148.8v148.8h297.6h297.6v297.6v297.6h-148.8h-148.8v148.8
			v148.8h148.8h148.8v148.8v148.8h-148.8h-148.8v-148.8v-148.8h-148.8H4464v-148.8v-148.8h-148.8h-148.8v-148.8v-148.8h-148.8
			h-148.8v-148.8v-148.8H3720h-148.8v297.6v297.6H3720h148.8v148.8v148.8h148.8h148.8v148.8v148.8h-148.8h-148.8v-148.8v-148.8
			h-297.6h-297.6v-148.8v-148.8h-148.8H2976v297.6v297.6h-148.8h-148.8V7291.1z M3273.6,6398.3v-148.8h-148.8H2976v148.8v148.8
			h148.8h148.8V6398.3z M4761.6,5505.5v-148.8h-148.8H4464v148.8v148.8h148.8h148.8L4761.6,5505.5L4761.6,5505.5z"/>
		<path class="st0" d="M5356.7,6398.3V5356.7h1041.6h1041.6v1041.6v1041.6H6398.3H5356.7V6398.3z M7142.3,6398.3v-744h-744h-744v744
			v744h744h744V6398.3z"/>
		<path class="st0" d="M5951.9,6398.3v-446.4h446.4h446.4v446.4v446.4h-446.4h-446.4V6398.3z"/>
		<path class="st0" d="M2380.8,5654.3v-297.6h148.8h148.8v297.6v297.6h-148.8h-148.8V5654.3z"/>
		<path class="st0" d="M0,4910.3v-148.8h297.6h297.6V4464v-297.6H744h148.8V4464v297.6h148.8h148.8v-148.8V4464H1488h297.6v-148.8
			v-148.8h148.8h148.8v-148.8v-148.8h-148.8h-148.8V3720v-148.8h148.8h148.8v-148.8v-148.8h-297.6H1488V3720v446.4h-148.8h-148.8
			v-148.8v-148.8h-148.8H892.8V3720v-148.8H744H595.2V3720v148.8H446.4H297.6v297.6V4464H148.8H0V3422.4V2380.8h148.8h148.8V2976
			v595.2h148.8h148.8v-148.8v-148.8H744h148.8V2976v-297.6H744H595.2v-148.8v-148.8H744h148.8v148.8v148.8h148.8h148.8v-148.8
			v-148.8h446.4h446.4v148.8v148.8h446.4H2976v-148.8v-148.8h148.8h148.8v148.8v148.8h-148.8H2976v148.8V2976h-446.4h-446.4v148.8
			v148.8H2232h148.8v148.8v148.8h297.6H2976v-148.8v-148.8h148.8h148.8v148.8v148.8h148.8h148.8v-148.8v-148.8H3720h148.8v148.8
			v148.8h148.8h148.8V2976v-595.2h148.8H4464v148.8v148.8h148.8h148.8v-595.2V1488h-148.8H4464v148.8v148.8h-148.8h-148.8v148.8
			v148.8h-595.2H2976v-148.8v-148.8h148.8h148.8V1488v-297.6h148.8h148.8v-148.8V892.8H3720h148.8V744V595.2H3720h-148.8V297.6V0
			H3720h148.8v148.8v148.8h148.8h148.8V148.8V0h148.8H4464v148.8v148.8h446.4h446.4v148.8v148.8H5208h-148.8V744v148.8h-148.8
			h-148.8v148.8v148.8h297.6h297.6v-148.8V892.8h148.8h148.8v148.8v148.8h148.8H5952v-148.8V892.8h148.8h148.8V744V595.2H5952
			h-297.6V297.6V0h892.8H7440v744v744h-446.4h-446.4v148.8v148.8h446.4H7440v148.8v148.8h-446.4h-446.4V2232v148.8H6696h148.8v148.8
			v148.8H6696h-148.8v-148.8v-148.8h-148.8h-148.8v297.6V2976h148.8h148.8v297.6v297.6H6696h148.8v-297.6V2976h148.8h148.8v-148.8
			v-148.8h148.8H7440V2976v297.6h-148.8h-148.8v148.8v148.8h148.8H7440v446.4V4464h-148.8h-148.8v297.6v297.6h-148.8h-148.8v-446.4
			v-446.4h148.8h148.8v-148.8v-148.8h-297.6h-297.6V3720v-148.8h-148.8h-148.8V3720v148.8h-148.8H5952V3720v-148.8h-148.8h-148.8
			v297.6v297.6h-297.6h-297.6v148.8V4464h-892.8h-892.8v-148.8v-148.8h-148.8H2976V4464v297.6h148.8h148.8v148.8v148.8h-744h-744
			v-148.8v-148.8h-148.8H1488v148.8v148.8H744H0V4910.3z M2380.8,4612.8V4464h148.8h148.8v-297.6v-297.6h-148.8h-148.8V3720v-148.8
			H2232h-148.8V3720v148.8H2232h148.8v297.6V4464h-297.6h-297.6v148.8v148.8h297.6h297.6V4612.8z M4166.4,4017.6v-148.8h-148.8
			h-148.8V3720v-148.8H3720h-148.8v297.6v297.6h297.6h297.6V4017.6z M4761.6,4017.6v-148.8h148.8h148.8v-297.6v-297.6h-297.6H4464
			V3720v446.4h148.8h148.8L4761.6,4017.6L4761.6,4017.6z M3273.6,3720v-148.8h-148.8H2976V3720v148.8h148.8h148.8V3720z
			 M5654.3,3422.4v-148.8h-148.8h-148.8v148.8v148.8h148.8h148.8V3422.4z M6249.5,3422.4v-148.8h-148.8h-148.8v148.8v148.8h148.8
			h148.8V3422.4z M1488,2827.2v-148.8h-148.8h-148.8v148.8V2976h148.8H1488V2827.2z M2083.2,2827.2v-148.8h-148.8h-148.8v148.8V2976
			h148.8h148.8V2827.2z M5356.7,2827.2v-148.8h-297.6h-297.6v148.8V2976h297.6h297.6V2827.2z M5951.9,1934.4V1488h-446.4h-446.4
			v446.4v446.4h446.4h446.4V1934.4z M6547.1,1934.4v-148.8h-148.8h-148.8v148.8v148.8h148.8h148.8V1934.4z M4166.4,1636.8V1488
			h148.8H4464v-297.6V892.8h148.8h148.8V744V595.2h-148.8H4464V446.4V297.6h-148.8h-148.8v148.8v148.8h148.8H4464V744v148.8h-148.8
			h-148.8v148.8v148.8h-297.6h-297.6V1488v297.6h297.6h297.6L4166.4,1636.8L4166.4,1636.8z M6547.1,1339.2v-148.8h-148.8h-148.8
			v148.8V1488h148.8h148.8V1339.2z M7142.3,595.2V297.6h-297.6h-297.6v148.8v148.8h148.8h148.8V744v148.8h148.8h148.8L7142.3,595.2
			L7142.3,595.2z"/>
		<path class="st0" d="M5356.7,1934.4v-148.8h148.8h148.8v148.8v148.8h-148.8h-148.8V1934.4z"/>
		<path class="st0" d="M5654.3,4761.6V4464h148.8h148.8v-148.8v-148.8h297.6h297.6v148.8V4464h-297.6h-297.6v297.6v297.6h-148.8
			h-148.8V4761.6z"/>
		<path class="st0" d="M6249.5,4910.3v-148.8h148.8h148.8v148.8v148.8h-148.8h-148.8V4910.3z"/>
		<path class="st0" d="M3571.2,2678.4v-297.6H3720h148.8v297.6V2976H3720h-148.8V2678.4z"/>
		<path class="st0" d="M2380.8,2083.2v-297.6h148.8h148.8v297.6v297.6h-148.8h-148.8V2083.2z"/>
		<path class="st0" d="M0,1041.6V0h1041.6h1041.6v1041.6v1041.6H1041.6H0V1041.6z M1785.6,1041.6v-744h-744h-744v744v744h744h744
			V1041.6z"/>
		<path class="st0" d="M595.2,1041.6V595.2h446.4H1488v446.4V1488h-446.4H595.2V1041.6z"/>
		<path class="st0" d="M2380.8,744V0h148.8h148.8v297.6v297.6H2976h297.6V744v148.8H2976h-297.6v148.8v148.8h148.8H2976v148.8V1488
			h-297.6h-297.6C2380.8,1488,2380.8,744,2380.8,744z"/>
		<path class="st0" d="M2976,148.8V0h148.8h148.8v148.8v148.8h-148.8H2976V148.8z"/>
	</g>
</g>
</svg>
